<?xml version="1.0" encoding="utf-8"?>
<!-- Generator: Adobe Illustrator 16.0.0, SVG Export Plug-In . SVG Version: 6.00 Build 0)  -->
<!DOCTYPE svg PUBLIC "-//W3C//DTD SVG 1.1//EN" "http://www.w3.org/Graphics/SVG/1.1/DTD/svg11.dtd">
<svg version="1.1" id="Layer_1" xmlns="http://www.w3.org/2000/svg" xmlns:xlink="http://www.w3.org/1999/xlink" x="0px" y="0px"
	 width="500px" height="180px" viewBox="0 0 500 180" enable-background="new 0 0 500 180" xml:space="preserve">
<g>
	<path fill="#392163" d="M28.951,115.009l2.398,2.1c0,0,2.999,0.186,24.354,0c17.458-0.15,19.632-13.337,19.632-15.062v-11.84
		h10.641v22.929c0,9.441,8.242,14.986,18.509,14.912c10.266-0.076,10.266-1.724,10.266-1.724l1.048,1.124h12.814l2.249-2.473v-40.99
		l-2.698-2.398v-1.124l2.772-2.247v-18.81c0-6.969-5.846-14.912-19.183-14.912h-7.718c0,0,1.722-2.397,1.722-5.394V22.315
		c0-6.593-6.669-14.537-19.932-14.537H62.448l-2.173,2.248v25.029h-29l-2.21,2.211L28.951,115.009z"/>
	<path fill="#FFFFFF" d="M33.792,39.646v73.009l21.204-0.128c0,0,15.363-0.634,15.363-13.458V85.355l15.745,0.126
		c0,0,3.3-0.126,4.57-0.761v25.395c0,0-1.269,13.079,14.476,13.079c0,0,6.476-0.128,10.792-4.571l2.285,3.81h7.873v-36.06h-17.903
		v11.172h3.301v13.586c0,0,0.001,1.778-2.412,1.778c-2.413,0-2.413-1.522-2.413-1.522v-50.79c0,0,0.171-1.505,2.56-1.505
		c1.952,0,2.289,1.42,2.289,1.42l-0.024,14.814h14.348V59.708c0,0,0.508-10.411-17.269-10.411c0,0-5.079-0.127-9.395,1.142
		c0,0-2.031-2.031-3.175-2.412c-1.141-0.381-2.413-1.396-4.063-1.65c0,0,8.888-2.541,8.888-10.919V23.648
		c0,0,0.634-11.174-19.808-11.174H65.28v30.601c0,0-4.751-3.371-12.008-3.412C46.289,39.623,33.792,39.646,33.792,39.646"/>
	<path fill="#392163" d="M49.913,102.839l0.001-53.807c4.762-0.077,4.506,3.146,4.506,3.146v47.442
		C54.42,99.619,54.518,102.82,49.913,102.839"/>
	<path fill="#392163" d="M81.022,50.119l0.039,25.883c0,0,4.703,0.543,4.703-3.187c0-3.731-0.078-19.977-0.078-19.977
		S85.997,50.158,81.022,50.119"/>
	<path fill="#392163" d="M85.764,25.032c0,0,0.273-2.67-4.701-2.71v19.826c0,0,4.707,0.33,4.707-3.4
		C85.77,37.092,85.764,25.032,85.764,25.032"/>
	<path fill="#392163" d="M140.303,55.993h4.796v48.317l2.337,2.339h18.044l2.127-2.128v-6.564c0,0,3.148,9.231,14.898,9.231h6.474
		c9.472,0,11.63-4.317,11.63-4.317s2.757,4.317,11.75,4.317h5.994c6.473,0,9.232-2.038,9.232-2.038l1.319,1.319h61.866l1.26-1.259
		c0,0,3.055,2.097,8.691,2.097h6.834c4.436,0,8.391-2.038,8.391-2.038l1.379,1.38h16.846l1.35-1.351c0,0,3.688,2.009,8.482,2.009
		h6.834c5.875,0,9.713-2.637,9.713-2.637v9.472l2.277,2.278c0,0,10.191,0.09,19.063,0c11.871-0.119,13.189-7.913,13.189-9.83h11.869
		l1.199-1.2c0,0,4.076,1.799,7.674,1.799h8.033c8.273,0,10.912-4.197,10.912-4.197s2.635,4.077,10.309,4.077h8.992
		c8.395,0,13.91-6.714,13.91-10.671V82.251c0,0,0.119-2.277-1.559-5.275l1.379-1.378V60.19c0-4.436-5.455-10.791-14.566-10.791
		h-8.752c-3.719,0-8.035,2.759-9.352,4.197c0,0-3.357-4.316-11.029-4.316h-8.875c-2.518,0-6.115,1.439-6.115,1.439v-9.832
		l-2.279-2.277h-16.664l-2.279,2.277v8.872h-10.07c0,0-1.318-0.479-2.758-0.479h-6.953c-2.76,0-5.516,1.679-6.715,3.596
		c0,0-4.074-3.596-11.631-3.596h-7.193c-3.236,0-6.115,1.679-6.115,1.679v-9.951l-2.338-2.338h-16.844l-2.371,2.368v10.04
		c0,0-2.787-1.798-7.701-1.798h-7.555c-6.234,0-9.592,3.477-9.592,3.477s-1.797-3.237-8.514-3.237c0,0-7.074-0.36-8.033,0.359
		h-15.105l-0.658,0.66c0,0-1.859-1.259-5.096-1.259h-4.795v-8.272l-2.279-2.278h-16.905l-2.159,2.158v9.832
		c0,0-2.517-1.439-7.313-1.439c0,0-3.479,0.127-7.433,0c-7.434-0.24-11.15,4.557-11.15,4.557s-2.038-4.438-12.229-4.438h-5.275
		c-5.516,0-8.153,1.439-8.153,1.439v-9.831l-2.219-2.218h-32.43l-2.008,2.008v12.798L140.303,55.993z"/>
	<polygon fill="#FFFFFF" points="150.017,51.077 150.017,101.673 162.845,101.673 162.845,51.197 170.039,51.197 170.039,43.404 
		142.943,43.404 142.943,51.077 	"/>
	<path fill="#FFFFFF" d="M167.621,55.947V58.5c0,0,0.309-1.238,1.392-2.554H167.621z"/>
	<path fill="#FFFFFF" d="M172.263,91.066c0,5.492,1.083,11.294,13.461,11.294c12.375,0,13.536-5.104,13.536-11.525v-7.581h-11.604
		v9.437c0,3.249-3.868,3.095-3.868,0V81.707h15.393V62.368c0-5.878-6.652-8.044-13.305-8.044c-7.813,0-13.614,3.017-13.614,8.509
		L172.263,91.066L172.263,91.066z"/>
	<path fill="#FFFFFF" d="M406.646,91.066c0,5.492,1.082,11.294,13.461,11.294c12.377,0,13.535-5.104,13.535-11.525v-7.581h-11.602
		v9.437c0,3.249-3.869,3.095-3.869,0V81.707h15.393V62.368c0-5.878-6.652-8.044-13.307-8.044c-7.811,0-13.613,3.017-13.613,8.509
		L406.646,91.066L406.646,91.066z"/>
	<path fill="#FFFFFF" d="M290.387,92.612c0,6.113,4.332,9.826,13.689,9.826c9.361,0,13.385-4.1,13.385-8.587V63.218
		c0-5.956-6.885-8.895-13.615-8.895s-13.461,2.32-13.461,9.05L290.387,92.612L290.387,92.612z"/>
	<path fill="#FFFFFF" d="M333.936,92.612c0,6.113,4.33,9.826,13.691,9.826c9.359,0,13.383-4.1,13.383-8.587V63.218
		c0-5.956-6.885-8.895-13.615-8.895s-13.461,2.32-13.461,9.05L333.936,92.612L333.936,92.612z"/>
	<path fill="#FFFFFF" d="M228.847,75.641V62.588c0-5.957-6.886-8.227-13.614-8.227c-6.731,0-13.461,2.32-13.461,9.051v29.241
		c0,6.111,4.332,9.824,13.691,9.824s13.383-4.1,13.383-8.587c0-1.993-0.047-7.015-0.047-12.579h-11.645l0.01,11.728
		c0,2.631-3.715,2.554-3.715-0.078l-0.008-29.538c0-2.631,3.722-2.487,3.722,0.144v12.075L228.847,75.641z"/>
	<path fill="#FFFFFF" d="M260.998,101.803l11.682,0.023l0.021-8.77l-0.008-29.539c0-2.631,3.723-2.487,3.723,0.143v29.474v8.667
		h11.68V61.789c0-4.834-3.043-7.476-8.605-7.476c-5.564,0-6.914,1.799-6.914,1.799v-1.461H261L260.998,101.803z"/>
	<path fill="#FFFFFF" d="M243.019,55.045v1.068c0,0,1.349-1.798,6.913-1.798c5.565,0,8.604,2.641,8.604,7.475v40.014h-11.679v-8.667
		V63.662c0-2.629-3.723-2.773-3.723-0.143l0.01,29.539l-0.02,8.77l-11.685-0.023l0.004-46.759V43.58l11.563-0.006L243.019,55.045z"
		/>
	<rect x="319.844" y="43.523" fill="#FFFFFF" width="11.576" height="58.11"/>
	<rect x="392.68" y="54.65" fill="#FFFFFF" width="11.689" height="46.984"/>
	<rect x="392.68" y="43.523" fill="#FFFFFF" width="11.689" height="8.542"/>
	<g>
		<g>
			<g>
				<defs>
					<rect id="SVGID_1_" x="28.951" y="7.779" width="442.098" height="120.344"/>
				</defs>
				<clipPath id="SVGID_2_">
					<use xlink:href="#SVGID_1_"  overflow="visible"/>
				</clipPath>
				<path clip-path="url(#SVGID_2_)" fill="#FFFFFF" d="M365.336,111.764h10.488c8.924,0,14.502-0.147,14.502-10.338v-46.78h-10.115
					l-1.598,1.599c0,0-2.566-1.897-6.807-1.897c-4.238,0-8.625,1.636-8.625,7.214v34.063c0,5.057,4.758,6.693,8.477,6.693
					c3.721,0,4.91-0.297,6.992-1.71c0,0,0.52,4.09-4.016,4.09h-9.297L365.336,111.764L365.336,111.764z"/>
			</g>
		</g>
		<g>
			<g>
				<defs>
					<rect id="SVGID_3_" x="28.951" y="7.779" width="442.098" height="120.344"/>
				</defs>
				<clipPath id="SVGID_4_">
					<use xlink:href="#SVGID_3_"  overflow="visible"/>
				</clipPath>
				<path clip-path="url(#SVGID_4_)" fill="#FFFFFF" d="M447.664,82.831h-11.527v11.008c0,5.727,5.428,8.627,13.387,8.627
					c2.307,0,13.834,0.817,13.834-11.678v-4.685c0-5.876-2.828-7.512-7.811-10.337c-4.982-2.826-7.717-3.125-7.809-10.04
					c-0.076-5.653,4.09-4.686,4.09-0.967v8.254h11.008v-7.882c0-6.769-2.381-10.784-12.941-10.784s-13.461,4.76-13.461,9.073v6.917
					c0,5.281,2.379,6.843,7.213,9.521c4.836,2.677,7.809,2.528,7.809,10.635c0,6.322-3.779,5.048-3.779,2.816L447.664,82.831z"/>
			</g>
		</g>
	</g>
	<path fill="#392163" d="M183.789,75.193h3.946V64.056c0-2.862-3.946-2.94-3.946,0V75.193z"/>
	<path fill="#392163" d="M418.172,75.193h3.947V64.056c0-2.862-3.947-2.94-3.947,0V75.193z"/>
	<path fill="#392163" d="M302.059,63.833c0-2.63,3.723-2.485,3.723,0.144V93.45c0,2.631-3.713,2.553-3.713-0.078L302.059,63.833z"/>
	<path fill="#392163" d="M345.605,63.833c0-2.63,3.723-2.485,3.723,0.144V93.45c0,2.631-3.713,2.553-3.713-0.078L345.605,63.833z"/>
	<path fill="#392163" d="M374.943,64.059c0-2.629,3.723-2.486,3.723,0.144v29.473c0,2.63-3.715,2.552-3.715-0.078L374.943,64.059z"
		/>
	<g>
		<path fill="#392163" d="M113.703,164.467l-6.345-25.009h3.414l2.969,12.653c0.741,3.153,1.409,6.233,1.855,8.645h0.074
			c0.408-2.486,1.187-5.454,2.041-8.683l3.339-12.614h3.377l3.042,12.689c0.705,3.006,1.374,5.937,1.743,8.571h0.075
			c0.519-2.746,1.225-5.528,2.003-8.646l3.302-12.615h3.303l-7.087,25.009h-3.376l-3.154-12.986c-0.779-3.229-1.297-5.677-1.633-8.2
			h-0.075c-0.407,2.523-1.002,4.935-1.929,8.163l-3.563,13.023L113.703,164.467L113.703,164.467z"/>
		<path fill="#392163" d="M141.497,156.045c0.075,4.414,2.858,6.232,6.122,6.232c2.336,0,3.786-0.407,4.972-0.89l0.592,2.301
			c-1.15,0.52-3.153,1.148-6.01,1.148c-5.491,0-8.831-3.672-8.831-9.054c0-5.453,3.228-9.721,8.46-9.721
			c5.863,0,7.384,5.158,7.384,8.459c0,0.668-0.038,1.188-0.111,1.559L141.497,156.045z M151.034,153.706
			c0.036-2.04-0.854-5.307-4.49-5.307c-3.339,0-4.749,3.044-5.008,5.307H151.034z"/>
		<path fill="#392163" d="M158.233,138.123h3.266v11.242h0.075c1.15-2.003,3.228-3.265,6.122-3.265c4.453,0,7.57,3.71,7.57,9.127
			c0,6.456-4.081,9.647-8.089,9.647c-2.598,0-4.638-1.002-6.011-3.377h-0.074l-0.186,2.969h-2.821
			c0.113-1.225,0.148-3.043,0.148-4.639V138.123L158.233,138.123z M161.498,157.269c0,0.407,0.038,0.815,0.111,1.187
			c0.631,2.263,2.561,3.822,4.898,3.822c3.451,0,5.454-2.783,5.454-6.901c0-3.637-1.855-6.717-5.343-6.717
			c-2.227,0-4.304,1.559-4.935,4.008c-0.112,0.408-0.186,0.854-0.186,1.373V157.269z"/>
		<path fill="#392163" d="M178.902,161.163c1.001,0.594,2.708,1.262,4.34,1.262c2.338,0,3.451-1.15,3.451-2.67
			c0-1.56-0.927-2.412-3.302-3.303c-3.266-1.188-4.787-2.931-4.787-5.084c0-2.895,2.375-5.269,6.197-5.269
			c1.818,0,3.413,0.482,4.378,1.113l-0.78,2.337c-0.705-0.407-2.003-1.038-3.674-1.038c-1.929,0-2.968,1.112-2.968,2.448
			c0,1.521,1.039,2.188,3.376,3.08c3.08,1.15,4.713,2.709,4.713,5.417c0,3.19-2.486,5.417-6.679,5.417
			c-1.966,0-3.785-0.52-5.046-1.262L178.902,161.163z"/>
		<path fill="#392163" d="M195.6,143.206c-1.225,0-2.04-0.965-2.04-2.115s0.854-2.078,2.114-2.078c1.262,0,2.079,0.928,2.079,2.078
			s-0.816,2.115-2.116,2.115H195.6z M194.042,164.467v-17.959h3.266v17.959H194.042z"/>
		<path fill="#392163" d="M206.658,142.204v4.304h4.676v2.486h-4.676v9.684c0,2.227,0.63,3.488,2.448,3.488
			c0.891,0,1.411-0.074,1.893-0.223l0.148,2.485c-0.63,0.223-1.632,0.446-2.894,0.446c-1.521,0-2.746-0.52-3.525-1.374
			c-0.891-1.002-1.262-2.597-1.262-4.713v-9.795h-2.783v-2.485h2.783v-3.303L206.658,142.204z"/>
		<path fill="#392163" d="M216.642,156.045c0.075,4.414,2.857,6.232,6.121,6.232c2.338,0,3.786-0.407,4.972-0.89l0.592,2.301
			c-1.15,0.52-3.152,1.148-6.01,1.148c-5.492,0-8.832-3.672-8.832-9.054c0-5.453,3.228-9.721,8.459-9.721
			c5.863,0,7.384,5.158,7.384,8.459c0,0.668-0.038,1.188-0.112,1.559L216.642,156.045z M226.176,153.706
			c0.038-2.04-0.852-5.307-4.489-5.307c-3.339,0-4.75,3.044-5.009,5.307H226.176z"/>
		<path fill="#392163" d="M232.931,161.163c1.002,0.594,2.708,1.262,4.341,1.262c2.338,0,3.451-1.15,3.451-2.67
			c0-1.56-0.927-2.412-3.303-3.303c-3.265-1.188-4.786-2.931-4.786-5.084c0-2.895,2.376-5.269,6.196-5.269
			c1.817,0,3.414,0.482,4.379,1.113l-0.781,2.337c-0.704-0.407-2.001-1.038-3.672-1.038c-1.93,0-2.969,1.112-2.969,2.448
			c0,1.521,1.039,2.188,3.376,3.08c3.081,1.15,4.712,2.709,4.712,5.417c0,3.19-2.486,5.417-6.68,5.417
			c-1.967,0-3.785-0.52-5.046-1.262L232.931,161.163z"/>
		<path fill="#392163" d="M249.148,164.875c-1.262,0-2.153-1.002-2.153-2.339c0-1.336,0.927-2.338,2.225-2.338
			s2.188,0.965,2.188,2.338c0,1.337-0.891,2.339-2.224,2.339H249.148z"/>
		<path fill="#392163" d="M260.65,139.792c2.004-0.297,4.342-0.52,6.902-0.52c4.639,0,7.939,1.038,10.129,3.08
			c2.262,2.041,3.563,4.972,3.563,9.017c0,4.081-1.299,7.421-3.6,9.722c-2.375,2.338-6.232,3.599-11.094,3.599
			c-2.338,0-4.23-0.075-5.898-0.297v-24.601H260.65z M263.916,161.943c0.814,0.148,2.004,0.148,3.264,0.148
			c6.902,0.037,10.65-3.859,10.65-10.611c0.037-5.974-3.303-9.647-10.129-9.647c-1.67,0-2.93,0.147-3.785,0.334V161.943
			L263.916,161.943z"/>
		<path fill="#392163" d="M292.82,164.875c-4.82,0-8.607-3.563-8.607-9.239c0-6.012,3.971-9.536,8.904-9.536
			c5.158,0,8.645,3.748,8.645,9.202c0,6.679-4.639,9.571-8.904,9.571h-0.037V164.875L292.82,164.875z M292.932,162.427
			c3.117,0,5.455-2.932,5.455-7.013c0-3.043-1.521-6.866-5.381-6.866c-3.82,0-5.49,3.563-5.49,6.977
			c0,3.934,2.227,6.902,5.381,6.902H292.932L292.932,162.427z"/>
		<path fill="#392163" d="M305.885,151.369c0-1.893-0.037-3.377-0.148-4.861h2.895l0.184,2.932h0.076
			c0.891-1.67,2.969-3.339,5.938-3.339c2.482,0,6.344,1.483,6.344,7.644v10.723h-3.266v-10.353c0-2.893-1.078-5.343-4.156-5.343
			c-2.115,0-3.787,1.521-4.377,3.339c-0.148,0.408-0.225,1.003-0.225,1.521v10.835h-3.266L305.885,151.369L305.885,151.369z"/>
		<path fill="#392163" d="M328.336,156.045c0.074,4.414,2.857,6.232,6.121,6.232c2.338,0,3.785-0.407,4.973-0.89l0.592,2.301
			c-1.15,0.52-3.154,1.148-6.01,1.148c-5.492,0-8.832-3.672-8.832-9.054c0-5.453,3.229-9.721,8.459-9.721
			c5.863,0,7.383,5.158,7.383,8.459c0,0.668-0.037,1.188-0.109,1.559L328.336,156.045z M337.871,153.706
			c0.037-2.04-0.854-5.307-4.49-5.307c-3.34,0-4.748,3.044-5.01,5.307H337.871z"/>
		<path fill="#392163" d="M353.049,139.829c1.635-0.334,4.008-0.557,6.197-0.557c3.451,0,5.713,0.668,7.27,2.078
			c1.227,1.075,1.967,2.783,1.967,4.749c0,3.264-2.115,5.454-4.713,6.345v0.11c1.895,0.668,3.043,2.45,3.674,5.047
			c0.816,3.488,1.41,5.899,1.893,6.864h-3.34c-0.406-0.705-0.965-2.858-1.633-5.975c-0.742-3.45-2.115-4.748-5.045-4.86h-3.043
			v10.835h-3.227V139.829L353.049,139.829z M356.277,151.183h3.303c3.451,0,5.641-1.893,5.641-4.748
			c0-3.228-2.338-4.638-5.752-4.638c-1.557,0-2.635,0.147-3.189,0.297L356.277,151.183L356.277,151.183z"/>
		<path fill="#392163" d="M374.832,143.206c-1.227,0-2.041-0.965-2.041-2.115s0.852-2.078,2.115-2.078
			c1.262,0,2.078,0.928,2.078,2.078s-0.816,2.115-2.117,2.115H374.832z M373.271,164.467v-17.959h3.266v17.959H373.271z"/>
		<path fill="#392163" d="M397.316,161.833c0,4.155-0.854,6.641-2.559,8.238c-1.783,1.594-4.305,2.15-6.566,2.15
			c-2.154,0-4.527-0.519-5.975-1.484l0.814-2.523c1.189,0.78,3.043,1.448,5.27,1.448c3.34,0,5.789-1.744,5.789-6.308v-1.966h-0.076
			c-0.965,1.669-2.93,3.005-5.713,3.005c-4.453,0-7.645-3.785-7.645-8.793c0-6.086,3.971-9.5,8.127-9.5
			c3.115,0,4.787,1.596,5.604,3.081h0.074l0.111-2.673h2.893c-0.111,1.263-0.148,2.709-0.148,4.898V161.833L397.316,161.833z
			 M394.053,153.559c0-0.519-0.037-1.003-0.186-1.447c-0.594-1.931-2.152-3.489-4.564-3.489c-3.117,0-5.344,2.636-5.344,6.828
			c0,3.488,1.818,6.456,5.307,6.456c2.041,0,3.859-1.262,4.525-3.376c0.186-0.521,0.262-1.15,0.262-1.743V153.559z"/>
		<path fill="#392163" d="M402.699,138.123h3.266v11.205h0.072c0.521-0.929,1.338-1.78,2.34-2.301
			c0.965-0.593,2.115-0.927,3.34-0.927c2.41,0,6.27,1.483,6.27,7.682v10.686h-3.266v-10.315c0-2.931-1.074-5.344-4.154-5.344
			c-2.115,0-3.748,1.485-4.381,3.266c-0.184,0.445-0.221,0.928-0.221,1.559v10.835h-3.266V138.123z"/>
		<path fill="#392163" d="M427.078,142.204v4.304h4.676v2.486h-4.676v9.684c0,2.227,0.631,3.488,2.447,3.488
			c0.893,0,1.412-0.074,1.895-0.223l0.148,2.485c-0.631,0.223-1.633,0.446-2.896,0.446c-1.518,0-2.744-0.52-3.523-1.374
			c-0.891-1.002-1.262-2.597-1.262-4.713v-9.795h-2.783v-2.485h2.783v-3.303L427.078,142.204z"/>
		<path fill="#392163" d="M436.801,164.875c-1.262,0-2.152-1.002-2.152-2.339c0-1.336,0.928-2.338,2.225-2.338
			c1.299,0,2.189,0.965,2.189,2.338c0,1.337-0.891,2.339-2.225,2.339H436.801z"/>
	</g>
</g>
</svg>
